<?xml version="1.0" encoding="utf-8"?>
<!-- Generator: Adobe Illustrator 18.1.1, SVG Export Plug-In . SVG Version: 6.00 Build 0)  -->
<!DOCTYPE svg PUBLIC "-//W3C//DTD SVG 1.1//EN" "http://www.w3.org/Graphics/SVG/1.1/DTD/svg11.dtd">
<svg version="1.1" id="Layer_1" xmlns="http://www.w3.org/2000/svg" xmlns:xlink="http://www.w3.org/1999/xlink" x="0px" y="0px"
	 viewBox="0 0 600 600" enable-background="new 0 0 600 600" xml:space="preserve">
<g id="Inner">
	<g>
		<path fill="#222222" d="M260.4,252.9l-21.6-14.4l14.4,21.6C255,257.7,257.4,255.3,260.4,252.9z"/>
		<path fill="#222222" d="M300,238.5c5.4,0,10.2,0.6,15,1.8l-15-63.6l-15,63.6C289.8,239.1,294.6,238.5,300,238.5z"/>
		<path fill="#222222" d="M423.6,300.3l-63.6-15c1.2,4.8,1.8,9.6,1.8,15s-0.6,10.2-1.8,15L423.6,300.3z"/>
		<path fill="#222222" d="M238.2,300.3c0-5.4,0.6-10.2,1.8-15l-63.6,15l63.6,15C238.8,310.5,238.2,305.7,238.2,300.3z"/>
		<path fill="#222222" d="M300,362.1c-5.4,0-10.2-0.6-15-1.8l0,0l15,63.6l15-63.6C310.2,361.5,305.4,362.1,300,362.1z"/>
		<path fill="#222222" d="M339.6,347.7l22.2,14.4l-14.4-22.2C345,342.9,342.6,345.3,339.6,347.7z"/>
	</g>
	<g>
		<path fill="#222222" d="M300,246.9c29.4,0,53.4,24,53.4,53.4s-24,53.4-53.4,53.4s-53.4-24-53.4-53.4S270.6,246.9,300,246.9
			 M300,237.9c-34.8,0-62.4,28.2-62.4,62.4s28.2,62.4,62.4,62.4s62.4-28.2,62.4-62.4S334.8,237.9,300,237.9L300,237.9z"/>
	</g>
	<text transform="matrix(1 0 0 1 288.9644 162.48)" fill="#222222" font-family="'Helvetica-Bold'" font-size="30">N</text>
	<text transform="matrix(-1 0 0 -1 309.9468 437.52)" fill="#222222" font-family="'Helvetica-Bold'" font-size="30">S</text>
	
		<text transform="matrix(4.489659e-11 1 -1 4.489659e-11 437.7573 290.3853)" fill="#222222" font-family="'Helvetica-Bold'" font-size="30">E</text>
	
		<text transform="matrix(4.489659e-11 -1 1 4.489659e-11 162.2427 314.7856)" fill="#222222" font-family="'Helvetica-Bold'" font-size="30">W</text>
</g>
<g id="Outer">
	<path fill="#222222" d="M300,78C177,78,78,177.6,78,300c0,123,99.6,222,222,222s222-99.6,222-222C522,177,423,78,300,78z
		 M448.2,442.8l-8.4-8.4l-6,6l8.4,8.4c-10.8,10.8-22.8,19.8-36,27.6l-6-10.8l-7.2,4.2l6,10.8c-13.2,7.2-27.6,13.2-42,17.4l-3-12
		l-7.8,2.4l3,12c-11.4,3-23.4,4.8-35.4,5.4l-14.4-28.2L285,505.8c-12-0.6-24-2.4-35.4-5.4l3-12l-7.8-2.4l-3,12
		c-15-4.2-28.8-10.2-42-17.4l6-10.8l-7.2-4.2l-6,10.8c-13.2-7.8-25.2-17.4-36-27.6l8.4-8.4l-6-6l-8.4,8.4
		c-10.8-10.8-19.8-22.8-27.6-36l10.8-6l-4.2-7.2l-10.8,6c-7.2-13.2-13.2-27.6-17.4-42l12-3l-2.4-7.8l-12,3
		c-3-11.4-4.8-23.4-5.4-35.4l28.2-14.4l-28.2-14.4c0.6-12,2.4-24,5.4-35.4l12,3l2.4-7.8l-12-3c4.2-15,10.2-28.8,17.4-42l10.8,6
		l4.2-7.2l-10.8-6c7.8-13.2,17.4-25.2,27.6-36l8.4,8.4l6-6l-8.4-8.4c10.8-10.8,22.8-19.8,36-27.6l6,10.8l7.2-4.2l-6-10.8
		c13.2-7.2,27.6-13.2,42-17.4l3,12l7.8-2.4l-3-12c11.4-3,23.4-4.8,35.4-5.4l14.4,28.2l14.4-28.2c12,0.6,24,2.4,35.4,5.4l-3,12
		l7.8,2.4l3-12c15,4.2,28.8,10.2,42,17.4l-6,10.8l7.2,4.2l6-10.8c13.2,7.8,25.2,17.4,36,27.6l-8.4,8.4l6,6l8.4-8.4
		c10.8,10.8,19.8,22.8,27.6,36l-10.8,6l4.2,7.2l10.8-6c7.2,13.2,13.2,27.6,17.4,42l-12,3l2.4,7.8l12-3c3,11.4,4.8,23.4,5.4,35.4
		L477,300l28.2,14.4c-0.6,12-2.4,24-5.4,35.4l-12-3l-2.4,7.8l12,3c-4.2,15-10.2,28.8-17.4,42l-10.8-6l-4.2,7.2l10.8,6
		C468,419.4,459,431.4,448.2,442.8z"/>
</g>
<g id="Needle">
</g>
</svg>
