<?xml version="1.0" encoding="utf-8"?>
<!-- Generator: Adobe Illustrator 18.1.1, SVG Export Plug-In . SVG Version: 6.00 Build 0)  -->
<!DOCTYPE svg PUBLIC "-//W3C//DTD SVG 1.1//EN" "http://www.w3.org/Graphics/SVG/1.1/DTD/svg11.dtd">
<svg version="1.1" xmlns="http://www.w3.org/2000/svg" xmlns:xlink="http://www.w3.org/1999/xlink" x="0px" y="0px"
	 viewBox="-249 251 100 100" enable-background="new -249 251 100 100" xml:space="preserve">
<g id="Inner">
	<g>
		<path d="M-205.6,293.1l-3.6-2.4l2.4,3.6C-206.5,293.9-206.1,293.5-205.6,293.1z"/>
		<path d="M-199,290.7c0.9,0,1.7,0.1,2.5,0.3l-2.5-10.6l-2.5,10.6C-200.7,290.8-199.9,290.7-199,290.7z"/>
		<path d="M-178.4,301l-10.6-2.5c0.2,0.8,0.3,1.6,0.3,2.5c0,0.9-0.1,1.7-0.3,2.5L-178.4,301z"/>
		<path d="M-209.3,301c0-0.9,0.1-1.7,0.3-2.5l-10.6,2.5l10.6,2.5C-209.2,302.7-209.3,301.9-209.3,301z"/>
		<path d="M-199,311.3c-0.9,0-1.7-0.1-2.5-0.3c0,0,0,0,0,0l2.5,10.6l2.5-10.6C-197.3,311.2-198.1,311.3-199,311.3z"/>
		<path d="M-192.4,308.9l3.7,2.4l-2.4-3.7C-191.5,308.1-191.9,308.5-192.4,308.9z"/>
	</g>
	<g>
		<path d="M-199,292.1c4.9,0,8.9,4,8.9,8.9s-4,8.9-8.9,8.9c-4.9,0-8.9-4-8.9-8.9S-203.9,292.1-199,292.1 M-199,290.6
			c-5.8,0-10.4,4.7-10.4,10.4s4.7,10.4,10.4,10.4s10.4-4.7,10.4-10.4S-193.2,290.6-199,290.6L-199,290.6z"/>
	</g>
	<text transform="matrix(1 0 0 1 -200.8332 278.0257)" font-family="'Helvetica-Bold'" font-size="5">N</text>
	<text transform="matrix(-1 0 0 -1 -197.3369 323.8652)" font-family="'Helvetica-Bold'" font-size="5">S</text>
	<text transform="matrix(4.489659e-11 1 -1 4.489659e-11 -176.0342 299.3434)" font-family="'Helvetica-Bold'" font-size="5">E</text>
	<text transform="matrix(4.489659e-11 -1 1 4.489659e-11 -221.9536 303.4102)" font-family="'Helvetica-Bold'" font-size="5">W</text>
</g>
<g id="Outer">
	<path d="M-199,264c-20.5,0-37,16.6-37,37c0,20.5,16.6,37,37,37s37-16.6,37-37C-162,280.5-178.5,264-199,264z M-174.3,324.8
		l-1.4-1.4l-1,1l1.4,1.4c-1.8,1.8-3.8,3.3-6,4.6l-1-1.8l-1.2,0.7l1,1.8c-2.2,1.2-4.6,2.2-7,2.9l-0.5-2l-1.3,0.4l0.5,2
		c-1.9,0.5-3.9,0.8-5.9,0.9l-2.4-4.7l-2.4,4.7c-2-0.1-4-0.4-5.9-0.9l0.5-2l-1.3-0.4l-0.5,2c-2.5-0.7-4.8-1.7-7-2.9l1-1.8l-1.2-0.7
		l-1,1.8c-2.2-1.3-4.2-2.9-6-4.6l1.4-1.4l-1-1l-1.4,1.4c-1.8-1.8-3.3-3.8-4.6-6l1.8-1l-0.7-1.2l-1.8,1c-1.2-2.2-2.2-4.6-2.9-7l2-0.5
		l-0.4-1.3l-2,0.5c-0.5-1.9-0.8-3.9-0.9-5.9l4.7-2.4l-4.7-2.4c0.1-2,0.4-4,0.9-5.9l2,0.5l0.4-1.3l-2-0.5c0.7-2.5,1.7-4.8,2.9-7
		l1.8,1l0.7-1.2l-1.8-1c1.3-2.2,2.9-4.2,4.6-6l1.4,1.4l1-1l-1.4-1.4c1.8-1.8,3.8-3.3,6-4.6l1,1.8l1.2-0.7l-1-1.8
		c2.2-1.2,4.6-2.2,7-2.9l0.5,2l1.3-0.4l-0.5-2c1.9-0.5,3.9-0.8,5.9-0.9l2.4,4.7l2.4-4.7c2,0.1,4,0.4,5.9,0.9l-0.5,2l1.3,0.4l0.5-2
		c2.5,0.7,4.8,1.7,7,2.9l-1,1.8l1.2,0.7l1-1.8c2.2,1.3,4.2,2.9,6,4.6l-1.4,1.4l1,1l1.4-1.4c1.8,1.8,3.3,3.8,4.6,6l-1.8,1l0.7,1.2
		l1.8-1c1.2,2.2,2.2,4.6,2.9,7l-2,0.5l0.4,1.3l2-0.5c0.5,1.9,0.8,3.9,0.9,5.9l-4.7,2.4l4.7,2.4c-0.1,2-0.4,4-0.9,5.9l-2-0.5
		l-0.4,1.3l2,0.5c-0.7,2.5-1.7,4.8-2.9,7l-1.8-1l-0.7,1.2l1.8,1C-171,320.9-172.5,322.9-174.3,324.8z"/>
</g>
<g id="Needle">
	<g>
		<polygon fill="#E45412" points="-199,296.2 -178.4,280.4 -194.2,301 -196.1,298.2 		"/>
		<polygon points="-199,305.8 -219.6,321.6 -203.8,301 -201.9,303.8 		"/>
		<g>
			<path d="M-199,297.5c1.9,0,3.5,1.5,3.5,3.5s-1.5,3.5-3.5,3.5s-3.5-1.5-3.5-3.5S-200.9,297.5-199,297.5 M-199,296.2
				c-2.7,0-4.8,2.2-4.8,4.8s2.2,4.8,4.8,4.8s4.8-2.2,4.8-4.8S-196.3,296.2-199,296.2L-199,296.2z"/>
		</g>
	</g>
</g>
</svg>
