<?xml version="1.0" encoding="utf-8"?>
<!-- Generator: Adobe Illustrator 18.1.1, SVG Export Plug-In . SVG Version: 6.00 Build 0)  -->
<!DOCTYPE svg PUBLIC "-//W3C//DTD SVG 1.1//EN" "http://www.w3.org/Graphics/SVG/1.1/DTD/svg11.dtd">
<svg version="1.1" id="Layer_1" xmlns="http://www.w3.org/2000/svg" xmlns:xlink="http://www.w3.org/1999/xlink" x="0px" y="0px"
	 viewBox="0 200 560 560" enable-background="new 0 200 560 560" xml:space="preserve">
<g id="Inner">
	<g>
		<path fill="#222222" d="M243,436l-20.2-13.4l13.4,20.2C238,440.5,240.2,438.3,243,436z"/>
		<path fill="#222222" d="M280,422.6c5,0,9.5,0.6,14,1.7l-14-59.4l-14,59.4C270.5,423.2,275,422.6,280,422.6z"/>
		<path fill="#222222" d="M395.4,480.3l-59.4-14c1.1,4.5,1.7,9,1.7,14c0,5-0.6,9.5-1.7,14L395.4,480.3z"/>
		<path fill="#222222" d="M222.3,480.3c0-5,0.6-9.5,1.7-14l-59.4,14l59.4,14C222.9,489.8,222.3,485.3,222.3,480.3z"/>
		<path fill="#222222" d="M280,538c-5,0-9.5-0.6-14-1.7l0,0l14,59.4l14-59.4C289.5,537.4,285,538,280,538z"/>
		<path fill="#222222" d="M317,524.5l20.7,13.4l-13.4-20.7C322,520,319.8,522.3,317,524.5z"/>
	</g>
	<g>
		<path fill="#222222" d="M280,430.4c27.4,0,49.8,22.4,49.8,49.8c0,27.4-22.4,49.8-49.8,49.8s-49.8-22.4-49.8-49.8
			C230.2,452.8,252.6,430.4,280,430.4 M280,422c-32.5,0-58.2,26.3-58.2,58.2s26.3,58.2,58.2,58.2s58.2-26.3,58.2-58.2
			S312.5,422,280,422L280,422z"/>
	</g>
	<text transform="matrix(1 0 0 1 269.7002 351.6479)" fill="#222222" font-family="'Helvetica-Bold'" font-size="28">N</text>
	<text transform="matrix(-1 0 0 -1 289.2843 608.3524)" fill="#222222" font-family="'Helvetica-Bold'" font-size="28">S</text>
	
		<text transform="matrix(4.489659e-11 1 -1 4.489659e-11 408.5732 471.0264)" fill="#222222" font-family="'Helvetica-Bold'" font-size="28">E</text>
	
		<text transform="matrix(4.489659e-11 -1 1 4.489659e-11 151.4268 493.8002)" fill="#222222" font-family="'Helvetica-Bold'" font-size="28">W</text>
</g>
<g id="Outer">
	<path fill="#222222" d="M280,272.8c-114.8,0-207.2,93-207.2,207.2c0,114.8,93,207.2,207.2,207.2s207.2-93,207.2-207.2
		C487.2,365.2,394.8,272.8,280,272.8z M418.3,613.3l-7.8-7.8l-5.6,5.6l7.8,7.8c-10.1,10.1-21.3,18.5-33.6,25.8l-5.6-10.1l-6.7,3.9
		l5.6,10.1c-12.3,6.7-25.8,12.3-39.2,16.2l-2.8-11.2l-7.3,2.2l2.8,11.2c-10.6,2.8-21.8,4.5-33,5l-13.4-26.3L266,672.1
		c-11.2-0.6-22.4-2.2-33-5l2.8-11.2l-7.3-2.2l-2.8,11.2c-14-3.9-26.9-9.5-39.2-16.2l5.6-10.1l-6.7-3.9l-5.6,10.1
		c-12.3-7.3-23.5-16.2-33.6-25.8l7.8-7.8l-5.6-5.6l-7.8,7.8c-10.1-10.1-18.5-21.3-25.8-33.6l10.1-5.6l-3.9-6.7l-10.1,5.6
		c-6.7-12.3-12.3-25.8-16.2-39.2l11.2-2.8l-2.2-7.3l-11.2,2.8c-2.8-10.6-4.5-21.8-5-33l26.3-13.4l-26.3-13.4c0.6-11.2,2.2-22.4,5-33
		l11.2,2.8l2.2-7.3l-11.2-2.8c3.9-14,9.5-26.9,16.2-39.2l10.1,5.6l3.9-6.7l-10.1-5.6c7.3-12.3,16.2-23.5,25.8-33.6l7.8,7.8l5.6-5.6
		l-7.8-7.8c10.1-10.1,21.3-18.5,33.6-25.8l5.6,10.1l6.7-3.9l-5.6-10.1c12.3-6.7,25.8-12.3,39.2-16.2l2.8,11.2l7.3-2.2L233,293
		c10.6-2.8,21.8-4.5,33-5l13.4,26.3l13.4-26.3c11.2,0.6,22.4,2.2,33,5l-2.8,11.2l7.3,2.2l2.8-11.2c14,3.9,26.9,9.5,39.2,16.2
		l-5.6,10.1l6.7,3.9l5.6-10.1c12.3,7.3,23.5,16.2,33.6,25.8l-7.8,7.8l5.6,5.6l7.8-7.8c10.1,10.1,18.5,21.3,25.8,33.6l-10.1,5.6
		l3.9,6.7L448,387c6.7,12.3,12.3,25.8,16.2,39.2L453,429l2.2,7.3l11.2-2.8c2.8,10.6,4.5,21.8,5,33L445.2,480l26.3,13.4
		c-0.6,11.2-2.2,22.4-5,33l-11.2-2.8L453,531l11.2,2.8c-3.9,14-9.5,26.9-16.2,39.2l-10.1-5.6l-3.9,6.7l10.1,5.6
		C436.8,591.4,428.4,602.6,418.3,613.3z"/>
</g>
<g id="Needle">
</g>
</svg>
