<?xml version="1.0" encoding="utf-8"?>
<!-- Generator: Adobe Illustrator 18.1.1, SVG Export Plug-In . SVG Version: 6.00 Build 0)  -->
<!DOCTYPE svg PUBLIC "-//W3C//DTD SVG 1.1//EN" "http://www.w3.org/Graphics/SVG/1.1/DTD/svg11.dtd">
<svg version="1.1" id="Layer_1" xmlns="http://www.w3.org/2000/svg" xmlns:xlink="http://www.w3.org/1999/xlink" x="0px" y="0px"
	 viewBox="-5 390 570 570" enable-background="new -5 390 570 570" xml:space="preserve">
<polygon fill="#E8E8E8" points="270.7,652.9 280,573.7 289.3,653 "/>
<g>
	<path fill="#1A1A1A" d="M293.8,688.8c-7.5,7.5-19.8,7.9-27.7,0c-7.9-7.9-7.9-19.8,0-27.7s19.8-7.9,27.7,0
		C301.7,669,301.3,681.3,293.8,688.8 M298.9,693.9c10.7-10.7,10.3-27.7,0-38c-10.3-10.3-27.7-10.3-38,0c-10.3,10.3-10.3,27.7,0,38
		C271.2,704.2,288.2,704.6,298.9,693.9L298.9,693.9z"/>
</g>
</svg>
