<?xml version="1.0" encoding="utf-8"?>
<!-- Generator: Adobe Illustrator 18.1.1, SVG Export Plug-In . SVG Version: 6.00 Build 0)  -->
<!DOCTYPE svg PUBLIC "-//W3C//DTD SVG 1.1//EN" "http://www.w3.org/Graphics/SVG/1.1/DTD/svg11.dtd">
<svg version="1.1" id="Layer_1" xmlns="http://www.w3.org/2000/svg" xmlns:xlink="http://www.w3.org/1999/xlink" x="0px" y="0px"
	 viewBox="0 0 600 600" enable-background="new 0 0 600 600" xml:space="preserve">
<polygon fill="#E45412" points="300,271.2 423.6,176.4 328.8,300 317.4,283.2 "/>
<polygon fill="#1A1A1A" points="300,328.8 176.4,423.6 271.2,300 282.6,316.8 "/>
<g>
	<path fill="#1A1A1A" d="M300,279c11.4,0,21,9,21,21s-9,21-21,21s-21-9-21-21S288.6,279,300,279 M300,271.2
		c-16.2,0-28.8,13.2-28.8,28.8s13.2,28.8,28.8,28.8s28.8-13.2,28.8-28.8S316.2,271.2,300,271.2L300,271.2z"/>
</g>
</svg>
